<svg width="23" height="23" viewBox="0 0 23 23" fill="none" xmlns="http://www.w3.org/2000/svg">
<path d="M4.70954 1.23508C5.86351 0.867897 7.09495 0.817558 8.27503 1.08935C9.45512 1.36113 10.5405 1.94513 11.4175 2.78008C11.4403 2.80032 11.4696 2.81151 11.5 2.81151C11.5305 2.81151 11.5598 2.80032 11.5825 2.78008C12.3337 2.06333 13.2403 1.5297 14.2316 1.22096C15.223 0.912216 16.2722 0.836619 17.2975 1.00008L17.3015 1.00108C18.6666 1.22443 19.9312 1.85871 20.9265 2.81918C21.9219 3.77965 22.6007 5.02089 22.8725 6.37708V6.38008C23.0686 7.37393 23.0364 8.39947 22.7783 9.37904C22.5202 10.3586 22.0429 11.2669 21.3825 12.0351L13.4285 21.5151C13.1922 21.7966 12.8971 22.023 12.5639 22.1783C12.2308 22.3336 11.8676 22.4141 11.5 22.4141C11.1325 22.4141 10.7693 22.3336 10.4362 22.1783C10.103 22.023 9.80789 21.7966 9.57154 21.5151L1.61954 12.0351C0.958118 11.2673 0.479988 10.359 0.22133 9.37912C-0.0373287 8.39927 -0.0697407 7.3733 0.126544 6.37908C0.358837 5.18947 0.90687 4.08411 1.7132 3.17911C2.51953 2.27412 3.55447 1.60259 4.70954 1.23508Z" fill="#1ED760"/>
</svg>
