<svg width="24" height="23" viewBox="0 0 24 23" fill="none" xmlns="http://www.w3.org/2000/svg">
<path d="M5.38578 2.18801L5.38581 2.18801C6.369 1.87516 7.4182 1.83227 8.42365 2.06383C9.42905 2.29539 10.3538 2.79295 11.1011 3.50437L11.113 3.51571L11.1253 3.52665C11.3312 3.71011 11.5973 3.81151 11.8731 3.81151C12.1489 3.81151 12.415 3.71011 12.6209 3.52665L12.6336 3.51533L12.6459 3.50357C13.2857 2.89312 14.0578 2.43866 14.902 2.17573C15.733 1.91692 16.6118 1.85047 17.4719 1.98118L17.4722 1.98126L17.5131 1.98796C18.6775 2.17847 19.7561 2.71949 20.6052 3.53878C21.4381 4.34256 22.0113 5.37691 22.2516 6.50822L22.2645 6.57365C22.4313 7.41891 22.4039 8.29113 22.1843 9.12424C21.9648 9.9574 21.5589 10.7299 20.9973 11.3832L20.9972 11.3832L20.9895 11.3923L13.0357 20.8721C13.0357 20.8722 13.0356 20.8722 13.0355 20.8723C12.893 21.042 12.7152 21.1784 12.5145 21.2719C12.3136 21.3655 12.0947 21.4141 11.8731 21.4141C11.6515 21.4141 11.4326 21.3655 11.2317 21.2719C11.031 21.1784 10.8532 21.042 10.7107 20.8724C10.7106 20.8723 10.7106 20.8722 10.7105 20.8721L2.75874 11.3924L2.75881 11.3924L2.75024 11.3824C2.18781 10.7295 1.78122 9.95713 1.56126 9.12388C1.34131 8.29067 1.31374 7.41821 1.48066 6.57277L1.48105 6.57073C1.67897 5.55716 2.14591 4.61538 2.83288 3.84435C3.51991 3.07326 4.40169 2.50112 5.38578 2.18801Z" stroke="white" stroke-width="2"/>
</svg>
